# xmcd
#
# Track frame offsets:
# 150
# 17523
# 32555
# 44729
# 57312
# 68241
# 78439
# 92308
# 102120
# 112705
# 124675
# 136226
# 150837
# 168014
# 181218
# 195805
#
# Disc length: 2726 seconds
#
#
# Revision: 0
# Processed by: cddbd v1.5.1PL2 Copyright (c) Steve Scherf et al.
# Submitted via: Nero 7, 0, 5, 4 
#
DISCID=b00aa410
DTITLE=Lynn Anderson - Most Famous Hits II
DYEAR=1900
DGENRE=country
TTITLE0=Midnight Train To Georgia
TTITLE1=Could I Have This Dance
TTITLE2=Love To The Common People
TTITLE3=It Must Be Love
TTITLE4=Heaven's Just A Sin Away
TTITLE5=Fool Me
TTITLE6=Cry
TTITLE7=What A Man My Man Is
TTITLE8=Silver Threads And Golden Needles
TTITLE9=How Can I Unlove You
TTITLE10=You're My Man
TTITLE11=We've Only Just Begun
TTITLE12=Ride, Ride, Ride
TTITLE13=Close To You
TTITLE14=Keep Me In Mind
TTITLE15=Sing Me A Song
EXTD=
EXTT0=
EXTT1=
EXTT2=
EXTT3=
EXTT4=
EXTT5=
EXTT6=
EXTT7=
EXTT8=
EXTT9=
EXTT10=
EXTT11=
EXTT12=
EXTT13=
EXTT14=
EXTT15=
PLAYORDER=
